<?xml version="1.0" encoding="UTF-8"?>
<svg version="1.1" viewBox="0 0 1500 147" xmlns="http://www.w3.org/2000/svg">
<g transform="translate(-.90909 -.79723)">
<svg width="1500" height="147" data-background-color="#0c1d36" viewBox="0 0 396 39" xmlns="http://www.w3.org/2000/svg" xmlns:xlink="http://www.w3.org/1999/xlink">
<g transform="translate(.24 .21151)">
<svg width="395.52" height="38.577" viewBox="0 0 395.52 38.576977491961415">
<svg width="395.52" height="38.577" viewBox="0 0 395.52 38.576977491961415">
<svg width="395.52" height="38.577" viewBox="0 0 395.52 38.576977491961415">
<svg width="395.52" height="38.577" viewBox="0 0 395.52 38.576977491961415">
<svg width="395.52" height="38.577" viewBox="0 0 395.52 38.576977491961415">
<g>
<svg width="395.52" height="38.577" data-palette-color="#f9cc0b" viewBox="-9 -31.25 326.53 31.85">
<path class="wordmark-text-0" d="m38.25-31.25-1.45 8h-6.9l-4.05 23.25h-9.5l4.05-23.25h-6.85l1.45-8h23.25zm-23.05 28.85-0.4 2.25-21.2-2.25h21.6zm1.7-9.65-0.4 2.25-21.2-2.25h21.6zm0.85-4.8-0.4 2.25-21.2-2.25h21.6zm0.85-4.8-0.4 2.25-21.2-2.25h21.6zm-2.55 14.4-0.4 2.25-21.2-2.25h21.6zm-3.5-19.2-0.35 2.25-21.2-2.25h21.55zm0.85-4.8-0.4 2.25-21.15-2.25h21.55zm45.9 4.3q5.4 0 7.7 2.07 2.3 2.08 2.3 6.48 0 2.15-0.55 5.2-1.25 7.2-4.4 10.5t-9.9 3.3q-5.3 0-7.55-2.08-2.25-2.07-2.25-6.42 0-2.25 0.55-5.3 1.25-7.2 4.35-10.48 3.1-3.27 9.75-3.27zm-6.35 19.95h2.95q1.45 0 2.17-0.35 0.73-0.35 0.98-1.55l1.9-10.45h-3.05q-1.4 0-2.18 0.35-0.77 0.35-0.92 1.5l-1.85 10.5zm-29.45-5.05h19.95q-0.2 1.55-0.25 2.1l-19.7-2.1zm0.9-4.8h20l-0.45 2.1-19.55-2.1zm-0.7 9.6h19.45q0 0.8 0.2 2.1l-19.65-2.1zm2.7-14.4h19.75q-0.6 1.3-0.85 2l-18.9-2zm1.65 19.25h16.15q0.6 1.2 1.3 1.85l-17.45-1.85zm5.05-24.05h17.4q-1.2 0.7-2.05 1.65l-15.35-1.65zm55.3 14.4-0.4 2.25-16.2-2.25h16.6zm0.85-4.8-0.4 2.25-16.2-2.25h16.6zm15.74-14.4h13.3q6.45 0 9.18 2.27 2.72 2.28 2.72 7.38 0 2.6-0.6 6-1.5 8.4-5.12 12-3.63 3.6-11.68 3.6h-13.3l5.5-31.25zm12 8h-3.95l-2.65 15.25h3.95q1.95 0 2.9-0.47 0.95-0.48 1.25-2.18l1.75-9.95q0.05-0.3 0.05-0.8 0-1.15-0.8-1.5t-2.5-0.35zm-18.6 20.85-0.4 2.25-21.2-2.25h21.6zm1.7-9.65-0.4 2.25-21.2-2.25h21.6zm0.85-4.8-0.4 2.25-21.2-2.25h21.6zm0.85-4.8-0.4 2.25-21.2-2.25h21.6zm0.8-4.8-0.35 2.25-21.2-2.25h21.55zm-3.35 19.2-0.4 2.25-21.2-2.25h21.6zm4.2-24-0.4 2.25-21.15-2.25h21.55zm53.35 4.3q5.4 0 7.7 2.07 2.3 2.08 2.3 6.48 0 2.15-0.55 5.2-1.25 7.2-4.4 10.5t-9.9 3.3q-5.3 0-7.55-2.08-2.25-2.07-2.25-6.42 0-2.25 0.55-5.3 1.25-7.2 4.35-10.48 3.1-3.27 9.75-3.27zm-6.35 19.95h2.95q1.45 0 2.18-0.35 0.72-0.35 0.97-1.55l1.9-10.45h-3.05q-1.4 0-2.17 0.35-0.78 0.35-0.93 1.5l-1.85 10.5zm-29.45-5.05h19.95q-0.2 1.55-0.25 2.1l-19.7-2.1zm0.9-4.8h20l-0.45 2.1-19.55-2.1zm-0.7 9.6h19.45q0 0.8 0.2 2.1l-19.65-2.1zm2.7-14.4h19.75q-0.6 1.3-0.85 2l-18.9-2zm1.65 19.25h16.15q0.6 1.2 1.3 1.85l-17.45-1.85zm5.05-24.05h17.4q-1.2 0.7-2.05 1.65l-15.35-1.65zm86.95-4.8-1.45 8h-6.9l-4.05 23.25h-9.5l4.05-23.25h-6.85l1.45-8h23.25zm-23.05 28.85-0.4 2.25-21.2-2.25h21.6zm1.7-9.65-0.4 2.25-21.2-2.25h21.6zm0.85-4.8-0.4 2.25-21.2-2.25h21.6zm0.85-4.8-0.4 2.25-21.2-2.25h21.6zm-2.55 14.4-0.4 2.25-21.2-2.25h21.6zm-3.5-19.2-0.35 2.25-21.2-2.25h21.55zm0.85-4.8-0.4 2.25-21.15-2.25h21.55zm41.89 31.25h-8.75l4.6-26.45h8.8l-4.65 26.45zm-10-2.4-0.4 2.25-21.2-2.25h21.6zm1.7-9.65-0.4 2.25-21.2-2.25h21.6zm0.85-4.8-0.4 2.25-21.2-2.25h21.6zm0.85-4.8-0.4 2.25-21.2-2.25h21.6zm0.8-4.8-0.35 2.25-21.2-2.25h21.55zm-3.35 19.2-0.4 2.25-21.2-2.25h21.6zm47.9-3.5-4.5 10.75h-6.6l-0.75-10.75h-0.25l-2.4 10.75h-8.55l6.05-26.45h10.85l0.75 12.4h0.2l5.05-12.4h10.85l-3.2 26.45h-8.6l1.35-10.75h-0.25zm-24.2 8.35-0.5 2.25-21.2-2.25h21.7zm1.15-4.85-0.55 2.25-21.15-2.25h21.7zm1.1-4.8-0.5 2.25-21.15-2.25h21.65zm1.05-4.8-0.55 2.25-21-2.25h21.55zm1.1-4.8-0.5 2.25-21-2.25h21.5zm1.15-4.8-0.55 2.25-20.95-2.25h21.5zm59.25 10.9-0.85 4.8h-7.45l-0.6 3.4h9.25l-1.3 7.35h-17.65l4.6-26.45h17.6l-2.35 7.5h-8.15l-0.6 3.4h7.5zm-19.85 13.15-0.4 2.25-21.2-2.25h21.6zm1.7-9.65-0.4 2.25-21.2-2.25h21.6zm0.85-4.8-0.4 2.25-21.2-2.25h21.6zm0.85-4.8-0.4 2.25-21.2-2.25h21.6zm0.8-4.8-0.35 2.25-21.2-2.25h21.55zm-3.35 19.2-0.4 2.25-21.2-2.25h21.6z" fill="#f9cc0b" data-fill-palette-color="primary"/>
</svg>
</g>
</svg>
</svg>
</svg>
</svg>
</svg>
<rect width="395.52" height="38.577" fill="none" visibility="hidden"/>
</g>
</svg>
</g>
</svg>
